<svg width="658.4px" height="167.6px" xmlns="http://www.w3.org/2000/svg" viewBox="-79.17656249999999 -8.799999999999997 658.353125 167.6" style="background: rgba(0, 0, 0, 0)" preserveAspectRatio="xMidYMid"><defs><linearGradient id="editing-gradient-gradient" x1="0" x2="1" y1="0.5" y2="0.5" gradientUnits="objectBoundingBox"><stop offset="0" stop-color="#ff00ff"></stop><stop offset="1" stop-color="#00ffff"></stop></linearGradient></defs><g><g transform="matrix(1.4,0,0,1.6,-67.7,106.9)"><path d="M 6.9 -35.4 L 6.9 1 L 6.9 1 Q 6.1 1.2 4.5 1.5 L 4.5 1.5 L 4.5 1.5 Q 2.9 1.7 1.3 1.7 L 1.3 1.7 L 1.3 1.7 Q -0.3 1.7 -1.5 1.4 L -1.5 1.4 L -1.5 1.4 Q -2.7 1.2 -3.5 0.6 L -3.5 0.6 L -3.5 0.6 Q -4.4 -0.1 -4.8 -1.2 L -4.8 -1.2 L -4.8 -1.2 Q -5.2 -2.3 -5.2 -4.1 L -5.2 -4.1 L -5.2 -40.5 L -5.2 -40.5 Q -4.4 -40.6 -2.8 -40.9 L -2.8 -40.9 L -2.8 -40.9 Q -1.1 -41.1 0.4 -41.1 L 0.4 -41.1 L 0.4 -41.1 Q 2 -41.1 3.2 -40.9 L 3.2 -40.9 L 3.2 -40.9 Q 4.4 -40.6 5.2 -40 L 5.2 -40 L 5.2 -40 Q 6.1 -39.4 6.5 -38.3 L 6.5 -38.3 L 6.5 -38.3 Q 6.9 -37.2 6.9 -35.4 L 6.9 -35.4 Z M 31 -33.3 L 31 -33.3 L 31 -33.3 Q 33.9 -33.3 36.6 -32.5 L 36.6 -32.5 L 36.6 -32.5 Q 39.3 -31.7 41.3 -30.1 L 41.3 -30.1 L 41.3 -30.1 Q 43.4 -31.5 46 -32.4 L 46 -32.4 L 46 -32.4 Q 48.6 -33.3 52.2 -33.3 L 52.2 -33.3 L 52.2 -33.3 Q 54.9 -33.3 57.4 -32.6 L 57.4 -32.6 L 57.4 -32.6 Q 59.9 -31.9 61.9 -30.4 L 61.9 -30.4 L 61.9 -30.4 Q 63.8 -28.9 65 -26.5 L 65 -26.5 L 65 -26.5 Q 66.2 -24 66.2 -20.5 L 66.2 -20.5 L 66.2 1.2 L 66.2 1.2 Q 65.5 1.5 64 1.7 L 64 1.7 L 64 1.7 Q 62.5 1.9 60.9 1.9 L 60.9 1.9 L 60.9 1.9 Q 59.4 1.9 58.2 1.7 L 58.2 1.7 L 58.2 1.7 Q 57 1.5 56.2 0.8 L 56.2 0.8 L 56.2 0.8 Q 55.3 0.2 54.9 -0.9 L 54.9 -0.9 L 54.9 -0.9 Q 54.4 -1.9 54.4 -3.7 L 54.4 -3.7 L 54.4 -20.1 L 54.4 -20.1 Q 54.4 -22.2 53.3 -23.1 L 53.3 -23.1 L 53.3 -23.1 Q 52.1 -24.1 50.1 -24.1 L 50.1 -24.1 L 50.1 -24.1 Q 49.1 -24.1 48 -23.6 L 48 -23.6 L 48 -23.6 Q 46.9 -23.2 46.4 -22.7 L 46.4 -22.7 L 46.4 -22.7 Q 46.4 -22.4 46.4 -22.2 L 46.4 -22.2 L 46.4 -22.2 Q 46.4 -21.9 46.4 -21.7 L 46.4 -21.7 L 46.4 1.2 L 46.4 1.2 Q 45.7 1.5 44.2 1.7 L 44.2 1.7 L 44.2 1.7 Q 42.7 1.9 41.2 1.9 L 41.2 1.9 L 41.2 1.9 Q 39.7 1.9 38.5 1.7 L 38.5 1.7 L 38.5 1.7 Q 37.3 1.5 36.4 0.8 L 36.4 0.8 L 36.4 0.8 Q 35.6 0.2 35.2 -0.9 L 35.2 -0.9 L 35.2 -0.9 Q 34.7 -1.9 34.7 -3.7 L 34.7 -3.7 L 34.7 -20.1 L 34.7 -20.1 Q 34.7 -22.2 33.4 -23.1 L 33.4 -23.1 L 33.4 -23.1 Q 32.1 -24.1 30.4 -24.1 L 30.4 -24.1 L 30.4 -24.1 Q 29.1 -24.1 28.2 -23.7 L 28.2 -23.7 L 28.2 -23.7 Q 27.3 -23.3 26.7 -23 L 26.7 -23 L 26.7 1.2 L 26.7 1.2 Q 26 1.5 24.5 1.7 L 24.5 1.7 L 24.5 1.7 Q 23 1.9 21.5 1.9 L 21.5 1.9 L 21.5 1.9 Q 19.9 1.9 18.7 1.7 L 18.7 1.7 L 18.7 1.7 Q 17.5 1.5 16.7 0.8 L 16.7 0.8 L 16.7 0.8 Q 15.9 0.2 15.4 -0.9 L 15.4 -0.9 L 15.4 -0.9 Q 15 -1.9 15 -3.7 L 15 -3.7 L 15 -24.5 L 15 -24.5 Q 15 -26.4 15.8 -27.5 L 15.8 -27.5 L 15.8 -27.5 Q 16.6 -28.6 17.9 -29.5 L 17.9 -29.5 L 17.9 -29.5 Q 20.3 -31.2 23.8 -32.2 L 23.8 -32.2 L 23.8 -32.2 Q 27.3 -33.3 31 -33.3 Z M 87.7 -6.1 L 87.7 -6.1 L 87.7 -6.1 Q 88.9 -6.1 90.3 -6.4 L 90.3 -6.4 L 90.3 -6.4 Q 91.7 -6.6 92.4 -7 L 92.4 -7 L 92.4 -12.6 L 87.4 -12.1 L 87.4 -12.1 Q 85.5 -12 84.2 -11.3 L 84.2 -11.3 L 84.2 -11.3 Q 83 -10.6 83 -9.2 L 83 -9.2 L 83 -9.2 Q 83 -7.9 84.1 -7 L 84.1 -7 L 84.1 -7 Q 85.1 -6.1 87.7 -6.1 Z M 87.1 -33.3 L 87.1 -33.3 L 87.1 -33.3 Q 90.9 -33.3 93.9 -32.5 L 93.9 -32.5 L 93.9 -32.5 Q 97 -31.7 99.2 -30.2 L 99.2 -30.2 L 99.2 -30.2 Q 101.4 -28.6 102.5 -26.3 L 102.5 -26.3 L 102.5 -26.3 Q 103.7 -23.9 103.7 -20.6 L 103.7 -20.6 L 103.7 -5.2 L 103.7 -5.2 Q 103.7 -3.4 102.7 -2.2 L 102.7 -2.2 L 102.7 -2.2 Q 101.7 -1.1 100.3 -0.3 L 100.3 -0.3 L 100.3 -0.3 Q 95.8 2.4 87.7 2.4 L 87.7 2.4 L 87.7 2.4 Q 84 2.4 81.1 1.7 L 81.1 1.7 L 81.1 1.7 Q 78.2 1 76.1 -0.3 L 76.1 -0.3 L 76.1 -0.3 Q 74 -1.7 72.8 -3.9 L 72.8 -3.9 L 72.8 -3.9 Q 71.7 -6 71.7 -8.8 L 71.7 -8.8 L 71.7 -8.8 Q 71.7 -13.6 74.5 -16.1 L 74.5 -16.1 L 74.5 -16.1 Q 77.3 -18.7 83.3 -19.3 L 83.3 -19.3 L 92.3 -20.3 L 92.3 -20.8 L 92.3 -20.8 Q 92.3 -22.8 90.6 -23.6 L 90.6 -23.6 L 90.6 -23.6 Q 88.8 -24.5 85.5 -24.5 L 85.5 -24.5 L 85.5 -24.5 Q 82.9 -24.5 80.4 -23.9 L 80.4 -23.9 L 80.4 -23.9 Q 77.9 -23.4 75.9 -22.6 L 75.9 -22.6 L 75.9 -22.6 Q 75 -23.2 74.4 -24.5 L 74.4 -24.5 L 74.4 -24.5 Q 73.8 -25.7 73.8 -27.1 L 73.8 -27.1 L 73.8 -27.1 Q 73.8 -28.9 74.6 -30 L 74.6 -30 L 74.6 -30 Q 75.5 -31 77.3 -31.8 L 77.3 -31.8 L 77.3 -31.8 Q 79.3 -32.6 82 -32.9 L 82 -32.9 L 82 -32.9 Q 84.7 -33.3 87.1 -33.3 Z M 127.2 -33.3 L 127.2 -33.3 L 127.2 -33.3 Q 131.2 -33.3 134.4 -32.3 L 134.4 -32.3 L 134.4 -32.3 Q 137.6 -31.3 139.8 -29.7 L 139.8 -29.7 L 139.8 -29.7 Q 141.2 -28.7 142 -27.5 L 142 -27.5 L 142 -27.5 Q 142.8 -26.4 142.8 -24.5 L 142.8 -24.5 L 142.8 -0.3 L 142.8 -0.3 Q 142.8 3.3 141.4 6 L 141.4 6 L 141.4 6 Q 140 8.6 137.6 10.4 L 137.6 10.4 L 137.6 10.4 Q 135.2 12.1 132 13 L 132 13 L 132 13 Q 128.8 13.8 125.2 13.8 L 125.2 13.8 L 125.2 13.8 Q 118.9 13.8 115.3 12.1 L 115.3 12.1 L 115.3 12.1 Q 111.7 10.4 111.7 6.6 L 111.7 6.6 L 111.7 6.6 Q 111.7 5 112.4 3.8 L 112.4 3.8 L 112.4 3.8 Q 113 2.6 113.8 2 L 113.8 2 L 113.8 2 Q 115.8 3.1 118.4 3.9 L 118.4 3.9 L 118.4 3.9 Q 120.9 4.6 123.6 4.6 L 123.6 4.6 L 123.6 4.6 Q 127.3 4.6 129.5 3.4 L 129.5 3.4 L 129.5 3.4 Q 131.7 2.1 131.7 -0.6 L 131.7 -0.6 L 131.7 -1.7 L 131.7 -1.7 Q 128.9 -0.5 124.8 -0.5 L 124.8 -0.5 L 124.8 -0.5 Q 121.7 -0.5 118.9 -1.4 L 118.9 -1.4 L 118.9 -1.4 Q 116.1 -2.3 114 -4.3 L 114 -4.3 L 114 -4.3 Q 111.9 -6.3 110.6 -9.4 L 110.6 -9.4 L 110.6 -9.4 Q 109.4 -12.5 109.4 -16.8 L 109.4 -16.8 L 109.4 -16.8 Q 109.4 -21 110.7 -24.1 L 110.7 -24.1 L 110.7 -24.1 Q 112.1 -27.2 114.4 -29.2 L 114.4 -29.2 L 114.4 -29.2 Q 116.8 -31.3 120.1 -32.3 L 120.1 -32.3 L 120.1 -32.3 Q 123.4 -33.3 127.2 -33.3 Z M 131.5 -10.6 L 131.5 -23.2 L 131.5 -23.2 Q 131 -23.5 130.1 -23.8 L 130.1 -23.8 L 130.1 -23.8 Q 129.2 -24.1 127.8 -24.1 L 127.8 -24.1 L 127.8 -24.1 Q 124.4 -24.1 122.7 -22.2 L 122.7 -22.2 L 122.7 -22.2 Q 121 -20.3 121 -16.8 L 121 -16.8 L 121 -16.8 Q 121 -12.8 122.7 -11 L 122.7 -11 L 122.7 -11 Q 124.4 -9.2 127 -9.2 L 127 -9.2 L 127 -9.2 Q 129.9 -9.2 131.5 -10.6 L 131.5 -10.6 Z M 167.7 2.4 L 167.7 2.4 L 167.7 2.4 Q 163.7 2.4 160.2 1.3 L 160.2 1.3 L 160.2 1.3 Q 156.7 0.1 154.1 -2.1 L 154.1 -2.1 L 154.1 -2.1 Q 151.5 -4.4 150 -7.9 L 150 -7.9 L 150 -7.9 Q 148.6 -11.3 148.6 -15.9 L 148.6 -15.9 L 148.6 -15.9 Q 148.6 -20.5 150 -23.8 L 150 -23.8 L 150 -23.8 Q 151.5 -27 153.9 -29.1 L 153.9 -29.1 L 153.9 -29.1 Q 156.3 -31.3 159.5 -32.3 L 159.5 -32.3 L 159.5 -32.3 Q 162.6 -33.3 165.8 -33.3 L 165.8 -33.3 L 165.8 -33.3 Q 169.5 -33.3 172.5 -32.2 L 172.5 -32.2 L 172.5 -32.2 Q 175.5 -31 177.6 -29.1 L 177.6 -29.1 L 177.6 -29.1 Q 179.8 -27.2 181 -24.5 L 181 -24.5 L 181 -24.5 Q 182.2 -21.8 182.2 -18.6 L 182.2 -18.6 L 182.2 -18.6 Q 182.2 -16.3 180.9 -15 L 180.9 -15 L 180.9 -15 Q 179.6 -13.8 177.3 -13.5 L 177.3 -13.5 L 160.2 -10.9 L 160.2 -10.9 Q 161 -8.6 163.3 -7.5 L 163.3 -7.5 L 163.3 -7.5 Q 165.7 -6.3 168.7 -6.3 L 168.7 -6.3 L 168.7 -6.3 Q 171.5 -6.3 174 -7.1 L 174 -7.1 L 174 -7.1 Q 176.6 -7.8 178.2 -8.8 L 178.2 -8.8 L 178.2 -8.8 Q 179.3 -8.1 180 -6.8 L 180 -6.8 L 180 -6.8 Q 180.8 -5.6 180.8 -4.2 L 180.8 -4.2 L 180.8 -4.2 Q 180.8 -1.1 177.9 0.4 L 177.9 0.4 L 177.9 0.4 Q 175.7 1.6 172.9 2 L 172.9 2 L 172.9 2 Q 170.1 2.4 167.7 2.4 Z M 165.8 -24.7 L 165.8 -24.7 L 165.8 -24.7 Q 164.1 -24.7 162.9 -24.1 L 162.9 -24.1 L 162.9 -24.1 Q 161.7 -23.6 161 -22.7 L 161 -22.7 L 161 -22.7 Q 160.2 -21.9 159.8 -20.8 L 159.8 -20.8 L 159.8 -20.8 Q 159.5 -19.7 159.4 -18.6 L 159.4 -18.6 L 171.2 -20.6 L 171.2 -20.6 Q 171 -21.9 169.7 -23.3 L 169.7 -23.3 L 169.7 -23.3 Q 168.4 -24.7 165.8 -24.7 Z M 216.2 -8.7 L 216.2 -8.7 L 216.2 -8.7 Q 216.2 -3.4 212.2 -0.5 L 212.2 -0.5 L 212.2 -0.5 Q 208.3 2.5 200.6 2.5 L 200.6 2.5 L 200.6 2.5 Q 197.7 2.5 195.3 2.1 L 195.3 2.1 L 195.3 2.1 Q 192.8 1.7 191 0.8 L 191 0.8 L 191 0.8 Q 189.3 -0.1 188.3 -1.4 L 188.3 -1.4 L 188.3 -1.4 Q 187.3 -2.7 187.3 -4.5 L 187.3 -4.5 L 187.3 -4.5 Q 187.3 -6.1 188 -7.3 L 188 -7.3 L 188 -7.3 Q 188.6 -8.4 189.6 -9.2 L 189.6 -9.2 L 189.6 -9.2 Q 191.6 -8.1 194.2 -7.2 L 194.2 -7.2 L 194.2 -7.2 Q 196.8 -6.3 200.2 -6.3 L 200.2 -6.3 L 200.2 -6.3 Q 202.3 -6.3 203.4 -7 L 203.4 -7 L 203.4 -7 Q 204.6 -7.6 204.6 -8.6 L 204.6 -8.6 L 204.6 -8.6 Q 204.6 -9.6 203.8 -10.1 L 203.8 -10.1 L 203.8 -10.1 Q 202.9 -10.7 201 -11 L 201 -11 L 198.9 -11.5 L 198.9 -11.5 Q 192.9 -12.6 190 -15.1 L 190 -15.1 L 190 -15.1 Q 187.1 -17.7 187.1 -22.4 L 187.1 -22.4 L 187.1 -22.4 Q 187.1 -24.9 188.2 -27 L 188.2 -27 L 188.2 -27 Q 189.3 -29 191.3 -30.4 L 191.3 -30.4 L 191.3 -30.4 Q 193.3 -31.8 196.1 -32.6 L 196.1 -32.6 L 196.1 -32.6 Q 198.9 -33.3 202.2 -33.3 L 202.2 -33.3 L 202.2 -33.3 Q 204.8 -33.3 207 -32.9 L 207 -32.9 L 207 -32.9 Q 209.3 -32.6 210.9 -31.8 L 210.9 -31.8 L 210.9 -31.8 Q 212.6 -31 213.6 -29.8 L 213.6 -29.8 L 213.6 -29.8 Q 214.5 -28.6 214.5 -27 L 214.5 -27 L 214.5 -27 Q 214.5 -25.4 213.9 -24.2 L 213.9 -24.2 L 213.9 -24.2 Q 213.3 -23.1 212.4 -22.4 L 212.4 -22.4 L 212.4 -22.4 Q 211.9 -22.7 210.8 -23.1 L 210.8 -23.1 L 210.8 -23.1 Q 209.7 -23.5 208.4 -23.8 L 208.4 -23.8 L 208.4 -23.8 Q 207.1 -24.1 205.7 -24.3 L 205.7 -24.3 L 205.7 -24.3 Q 204.4 -24.5 203.3 -24.5 L 203.3 -24.5 L 203.3 -24.5 Q 201 -24.5 199.8 -24 L 199.8 -24 L 199.8 -24 Q 198.5 -23.5 198.5 -22.4 L 198.5 -22.4 L 198.5 -22.4 Q 198.5 -21.6 199.2 -21.1 L 199.2 -21.1 L 199.2 -21.1 Q 199.9 -20.6 201.8 -20.2 L 201.8 -20.2 L 204 -19.7 L 204 -19.7 Q 210.6 -18.2 213.4 -15.6 L 213.4 -15.6 L 213.4 -15.6 Q 216.2 -12.9 216.2 -8.7 Z M 274.4 -19.6 L 274.4 -5.5 L 274.4 -5.5 Q 274.4 -3.4 273.6 -2.3 L 273.6 -2.3 L 273.6 -2.3 Q 272.9 -1.3 271.2 -0.3 L 271.2 -0.3 L 271.2 -0.3 Q 270.3 0.2 268.8 0.7 L 268.8 0.7 L 268.8 0.7 Q 267.4 1.2 265.6 1.6 L 265.6 1.6 L 265.6 1.6 Q 263.9 2 262 2.2 L 262 2.2 L 262 2.2 Q 260.1 2.4 258.3 2.4 L 258.3 2.4 L 258.3 2.4 Q 253.3 2.4 248.9 1.1 L 248.9 1.1 L 248.9 1.1 Q 244.6 -0.3 241.4 -3 L 241.4 -3 L 241.4 -3 Q 238.2 -5.7 236.3 -9.8 L 236.3 -9.8 L 236.3 -9.8 Q 234.5 -13.9 234.5 -19.2 L 234.5 -19.2 L 234.5 -19.2 Q 234.5 -24.9 236.5 -29.1 L 236.5 -29.1 L 236.5 -29.1 Q 238.5 -33.3 241.9 -36.1 L 241.9 -36.1 L 241.9 -36.1 Q 245.2 -38.9 249.5 -40.3 L 249.5 -40.3 L 249.5 -40.3 Q 253.8 -41.7 258.4 -41.7 L 258.4 -41.7 L 258.4 -41.7 Q 265 -41.7 268.8 -39.6 L 268.8 -39.6 L 268.8 -39.6 Q 272.6 -37.5 272.6 -34.1 L 272.6 -34.1 L 272.6 -34.1 Q 272.6 -32.3 271.7 -31 L 271.7 -31 L 271.7 -31 Q 270.8 -29.7 269.6 -28.9 L 269.6 -28.9 L 269.6 -28.9 Q 267.9 -29.9 265.3 -30.9 L 265.3 -30.9 L 265.3 -30.9 Q 262.7 -31.9 259.5 -31.9 L 259.5 -31.9 L 259.5 -31.9 Q 253.7 -31.9 250.3 -28.6 L 250.3 -28.6 L 250.3 -28.6 Q 246.9 -25.3 246.9 -19.5 L 246.9 -19.5 L 246.9 -19.5 Q 246.9 -16.3 247.8 -14 L 247.8 -14 L 247.8 -14 Q 248.7 -11.7 250.3 -10.2 L 250.3 -10.2 L 250.3 -10.2 Q 251.9 -8.7 254 -8 L 254 -8 L 254 -8 Q 256.1 -7.2 258.4 -7.2 L 258.4 -7.2 L 258.4 -7.2 Q 259.9 -7.2 261.1 -7.5 L 261.1 -7.5 L 261.1 -7.5 Q 262.3 -7.8 262.9 -8.1 L 262.9 -8.1 L 262.9 -14.6 L 255.5 -14.6 L 255.5 -14.6 Q 255.1 -15.4 254.7 -16.6 L 254.7 -16.6 L 254.7 -16.6 Q 254.3 -17.9 254.3 -19.2 L 254.3 -19.2 L 254.3 -19.2 Q 254.3 -21.7 255.5 -22.8 L 255.5 -22.8 L 255.5 -22.8 Q 256.6 -23.9 258.4 -23.9 L 258.4 -23.9 L 270.1 -23.9 L 270.1 -23.9 Q 272.1 -23.9 273.3 -22.8 L 273.3 -22.8 L 273.3 -22.8 Q 274.4 -21.7 274.4 -19.6 L 274.4 -19.6 Z M 295.8 -6.1 L 295.8 -6.1 L 295.8 -6.1 Q 297 -6.1 298.4 -6.4 L 298.4 -6.4 L 298.4 -6.4 Q 299.8 -6.6 300.5 -7 L 300.5 -7 L 300.5 -12.6 L 295.5 -12.1 L 295.5 -12.1 Q 293.6 -12 292.3 -11.3 L 292.3 -11.3 L 292.3 -11.3 Q 291.1 -10.6 291.1 -9.2 L 291.1 -9.2 L 291.1 -9.2 Q 291.1 -7.9 292.2 -7 L 292.2 -7 L 292.2 -7 Q 293.2 -6.1 295.8 -6.1 Z M 295.2 -33.3 L 295.2 -33.3 L 295.2 -33.3 Q 299 -33.3 302 -32.5 L 302 -32.5 L 302 -32.5 Q 305.1 -31.7 307.3 -30.2 L 307.3 -30.2 L 307.3 -30.2 Q 309.5 -28.6 310.6 -26.3 L 310.6 -26.3 L 310.6 -26.3 Q 311.8 -23.9 311.8 -20.6 L 311.8 -20.6 L 311.8 -5.2 L 311.8 -5.2 Q 311.8 -3.4 310.8 -2.2 L 310.8 -2.2 L 310.8 -2.2 Q 309.8 -1.1 308.4 -0.3 L 308.4 -0.3 L 308.4 -0.3 Q 303.9 2.4 295.8 2.4 L 295.8 2.4 L 295.8 2.4 Q 292.1 2.4 289.2 1.7 L 289.2 1.7 L 289.2 1.7 Q 286.3 1 284.2 -0.3 L 284.2 -0.3 L 284.2 -0.3 Q 282.1 -1.7 280.9 -3.9 L 280.9 -3.9 L 280.9 -3.9 Q 279.8 -6 279.8 -8.8 L 279.8 -8.8 L 279.8 -8.8 Q 279.8 -13.6 282.6 -16.1 L 282.6 -16.1 L 282.6 -16.1 Q 285.4 -18.7 291.4 -19.3 L 291.4 -19.3 L 300.4 -20.3 L 300.4 -20.8 L 300.4 -20.8 Q 300.4 -22.8 298.7 -23.6 L 298.7 -23.6 L 298.7 -23.6 Q 296.9 -24.5 293.6 -24.5 L 293.6 -24.5 L 293.6 -24.5 Q 291 -24.5 288.5 -23.9 L 288.5 -23.9 L 288.5 -23.9 Q 286 -23.4 284 -22.6 L 284 -22.6 L 284 -22.6 Q 283.1 -23.2 282.5 -24.5 L 282.5 -24.5 L 282.5 -24.5 Q 281.9 -25.7 281.9 -27.1 L 281.9 -27.1 L 281.9 -27.1 Q 281.9 -28.9 282.7 -30 L 282.7 -30 L 282.7 -30 Q 283.6 -31 285.4 -31.8 L 285.4 -31.8 L 285.4 -31.8 Q 287.4 -32.6 290.1 -32.9 L 290.1 -32.9 L 290.1 -32.9 Q 292.8 -33.3 295.2 -33.3 Z M 330.9 -38.8 L 330.9 1.2 L 330.9 1.2 Q 330.2 1.4 328.7 1.6 L 328.7 1.6 L 328.7 1.6 Q 327.2 1.9 325.7 1.9 L 325.7 1.9 L 325.7 1.9 Q 324.2 1.9 322.9 1.7 L 322.9 1.7 L 322.9 1.7 Q 321.7 1.5 320.9 0.8 L 320.9 0.8 L 320.9 0.8 Q 320.1 0.2 319.6 -0.9 L 319.6 -0.9 L 319.6 -0.9 Q 319.2 -1.9 319.2 -3.7 L 319.2 -3.7 L 319.2 -43.7 L 319.2 -43.7 Q 319.9 -43.8 321.4 -44.1 L 321.4 -44.1 L 321.4 -44.1 Q 322.9 -44.3 324.4 -44.3 L 324.4 -44.3 L 324.4 -44.3 Q 326 -44.3 327.2 -44.1 L 327.2 -44.1 L 327.2 -44.1 Q 328.4 -43.9 329.2 -43.3 L 329.2 -43.3 L 329.2 -43.3 Q 330 -42.6 330.5 -41.6 L 330.5 -41.6 L 330.5 -41.6 Q 330.9 -40.5 330.9 -38.8 L 330.9 -38.8 Z M 350.2 -38.8 L 350.2 1.2 L 350.2 1.2 Q 349.5 1.4 348 1.6 L 348 1.6 L 348 1.6 Q 346.5 1.9 345 1.9 L 345 1.9 L 345 1.9 Q 343.5 1.9 342.3 1.7 L 342.3 1.7 L 342.3 1.7 Q 341.1 1.5 340.2 0.8 L 340.2 0.8 L 340.2 0.8 Q 339.4 0.2 339 -0.9 L 339 -0.9 L 339 -0.9 Q 338.5 -1.9 338.5 -3.7 L 338.5 -3.7 L 338.5 -43.7 L 338.5 -43.7 Q 339.3 -43.8 340.8 -44.1 L 340.8 -44.1 L 340.8 -44.1 Q 342.2 -44.3 343.8 -44.3 L 343.8 -44.3 L 343.8 -44.3 Q 345.3 -44.3 346.5 -44.1 L 346.5 -44.1 L 346.5 -44.1 Q 347.7 -43.9 348.5 -43.3 L 348.5 -43.3 L 348.5 -43.3 Q 349.3 -42.6 349.8 -41.6 L 349.8 -41.6 L 349.8 -41.6 Q 350.2 -40.5 350.2 -38.8 L 350.2 -38.8 Z M 375.4 2.4 L 375.4 2.4 L 375.4 2.4 Q 371.3 2.4 367.8 1.3 L 367.8 1.3 L 367.8 1.3 Q 364.3 0.1 361.7 -2.1 L 361.7 -2.1 L 361.7 -2.1 Q 359.1 -4.4 357.7 -7.9 L 357.7 -7.9 L 357.7 -7.9 Q 356.2 -11.3 356.2 -15.9 L 356.2 -15.9 L 356.2 -15.9 Q 356.2 -20.5 357.7 -23.8 L 357.7 -23.8 L 357.7 -23.8 Q 359.1 -27 361.6 -29.1 L 361.6 -29.1 L 361.6 -29.1 Q 364 -31.3 367.1 -32.3 L 367.1 -32.3 L 367.1 -32.3 Q 370.2 -33.3 373.4 -33.3 L 373.4 -33.3 L 373.4 -33.3 Q 377.1 -33.3 380.1 -32.2 L 380.1 -32.2 L 380.1 -32.2 Q 383.1 -31 385.3 -29.1 L 385.3 -29.1 L 385.3 -29.1 Q 387.4 -27.2 388.6 -24.5 L 388.6 -24.5 L 388.6 -24.5 Q 389.8 -21.8 389.8 -18.6 L 389.8 -18.6 L 389.8 -18.6 Q 389.8 -16.3 388.5 -15 L 388.5 -15 L 388.5 -15 Q 387.2 -13.8 384.9 -13.5 L 384.9 -13.5 L 367.8 -10.9 L 367.8 -10.9 Q 368.6 -8.6 370.9 -7.5 L 370.9 -7.5 L 370.9 -7.5 Q 373.3 -6.3 376.3 -6.3 L 376.3 -6.3 L 376.3 -6.3 Q 379.1 -6.3 381.7 -7.1 L 381.7 -7.1 L 381.7 -7.1 Q 384.2 -7.8 385.8 -8.8 L 385.8 -8.8 L 385.8 -8.8 Q 386.9 -8.1 387.6 -6.8 L 387.6 -6.8 L 387.6 -6.8 Q 388.4 -5.6 388.4 -4.2 L 388.4 -4.2 L 388.4 -4.2 Q 388.4 -1.1 385.5 0.4 L 385.5 0.4 L 385.5 0.4 Q 383.3 1.6 380.5 2 L 380.5 2 L 380.5 2 Q 377.8 2.4 375.4 2.4 Z M 373.4 -24.7 L 373.4 -24.7 L 373.4 -24.7 Q 371.8 -24.7 370.6 -24.1 L 370.6 -24.1 L 370.6 -24.1 Q 369.4 -23.6 368.6 -22.7 L 368.6 -22.7 L 368.6 -22.7 Q 367.8 -21.9 367.5 -20.8 L 367.5 -20.8 L 367.5 -20.8 Q 367.1 -19.7 367 -18.6 L 367 -18.6 L 378.8 -20.6 L 378.8 -20.6 Q 378.6 -21.9 377.3 -23.3 L 377.3 -23.3 L 377.3 -23.3 Q 376 -24.7 373.4 -24.7 Z M 407.2 -22.3 L 407.2 1.2 L 407.2 1.2 Q 406.5 1.5 405.1 1.7 L 405.1 1.7 L 405.1 1.7 Q 403.6 1.9 402 1.9 L 402 1.9 L 402 1.9 Q 400.5 1.9 399.3 1.7 L 399.3 1.7 L 399.3 1.7 Q 398.1 1.5 397.2 0.8 L 397.2 0.8 L 397.2 0.8 Q 396.4 0.2 396 -0.9 L 396 -0.9 L 396 -0.9 Q 395.5 -1.9 395.5 -3.7 L 395.5 -3.7 L 395.5 -24.4 L 395.5 -24.4 Q 395.5 -25.9 396.1 -27.1 L 396.1 -27.1 L 396.1 -27.1 Q 396.7 -28.2 397.8 -29.1 L 397.8 -29.1 L 397.8 -29.1 Q 398.9 -30 400.5 -30.7 L 400.5 -30.7 L 400.5 -30.7 Q 402.1 -31.5 404 -32 L 404 -32 L 404 -32 Q 405.9 -32.6 407.9 -32.9 L 407.9 -32.9 L 407.9 -32.9 Q 409.9 -33.2 411.9 -33.2 L 411.9 -33.2 L 411.9 -33.2 Q 415.2 -33.2 417.1 -31.9 L 417.1 -31.9 L 417.1 -31.9 Q 419 -30.6 419 -27.7 L 419 -27.7 L 419 -27.7 Q 419 -26.8 418.8 -25.8 L 418.8 -25.8 L 418.8 -25.8 Q 418.5 -24.9 418.1 -24.1 L 418.1 -24.1 L 418.1 -24.1 Q 416.6 -24.1 415.1 -24 L 415.1 -24 L 415.1 -24 Q 413.6 -23.9 412.1 -23.6 L 412.1 -23.6 L 412.1 -23.6 Q 410.7 -23.3 409.4 -23 L 409.4 -23 L 409.4 -23 Q 408.1 -22.7 407.2 -22.3 L 407.2 -22.3 Z M 429.1 -7.2 L 429.1 -7.2 L 429.1 -7.2 Q 428.3 -9 427.5 -11.1 L 427.5 -11.1 L 427.5 -11.1 Q 426.6 -13.2 425.7 -16 L 425.7 -16 L 425.7 -16 Q 424.8 -18.8 423.8 -22.3 L 423.8 -22.3 L 423.8 -22.3 Q 422.8 -25.9 421.7 -30.5 L 421.7 -30.5 L 421.7 -30.5 Q 422.6 -31.5 424.2 -32.2 L 424.2 -32.2 L 424.2 -32.2 Q 425.9 -32.9 427.8 -32.9 L 427.8 -32.9 L 427.8 -32.9 Q 430.2 -32.9 431.8 -31.9 L 431.8 -31.9 L 431.8 -31.9 Q 433.4 -30.9 434.1 -28.1 L 434.1 -28.1 L 439.6 -9.2 L 439.9 -9.2 L 439.9 -9.2 Q 440.7 -11.5 441.5 -14.3 L 441.5 -14.3 L 441.5 -14.3 Q 442.3 -17 443 -20 L 443 -20 L 443 -20 Q 443.8 -22.9 444.5 -25.8 L 444.5 -25.8 L 444.5 -25.8 Q 445.1 -28.8 445.6 -31.6 L 445.6 -31.6 L 445.6 -31.6 Q 448.1 -32.9 451 -32.9 L 451 -32.9 L 451 -32.9 Q 453.5 -32.9 455.1 -31.9 L 455.1 -31.9 L 455.1 -31.9 Q 456.6 -30.8 456.6 -28.3 L 456.6 -28.3 L 456.6 -28.3 Q 456.6 -26.4 456.2 -24 L 456.2 -24 L 456.2 -24 Q 455.7 -21.5 454.9 -18.8 L 454.9 -18.8 L 454.9 -18.8 Q 454.1 -16 453 -13.1 L 453 -13.1 L 453 -13.1 Q 451.9 -10.1 450.8 -7.3 L 450.8 -7.3 L 450.8 -7.3 Q 449.6 -4.5 448.4 -2 L 448.4 -2 L 448.4 -2 Q 447.1 0.6 445.9 2.6 L 445.9 2.6 L 445.9 2.6 Q 444 5.9 442.4 8.1 L 442.4 8.1 L 442.4 8.1 Q 440.7 10.2 439.2 11.4 L 439.2 11.4 L 439.2 11.4 Q 437.7 12.6 436.1 13.1 L 436.1 13.1 L 436.1 13.1 Q 434.6 13.5 433 13.5 L 433 13.5 L 433 13.5 Q 430.1 13.5 428.3 11.8 L 428.3 11.8 L 428.3 11.8 Q 426.5 10.1 426.1 7.3 L 426.1 7.3 L 426.1 7.3 Q 428.3 5.6 430.6 3.5 L 430.6 3.5 L 430.6 3.5 Q 432.8 1.4 434.6 -0.8 L 434.6 -0.8 L 434.6 -0.8 Q 433.4 -1.2 432 -2.4 L 432 -2.4 L 432 -2.4 Q 430.7 -3.7 429.1 -7.2 Z" fill="url(#editing-gradient-gradient)"></path></g></g><style>text {
  font-size: 64px;
  font-family: Arial Black;
  dominant-baseline: central;
  text-anchor: middle;
}</style></svg>